0
SECTION
2
HEADER
9
$INSUNITS
70
4
9
$ACADVER
1
AC1014
9
$HANDSEED
5
FFFF
0
ENDSEC
0
SECTION
2
TABLES
0
TABLE
2
VPORT
5
8
100
AcDbSymbolTable
0
ENDTAB
0
TABLE
2
LTYPE
5
5
100
AcDbSymbolTable
0
LTYPE
5
14
100
AcDbSymbolTableRecord
100
AcDbLinetypeTableRecord
2
BYBLOCK
70
0
0
LTYPE
5
15
100
AcDbSymbolTableRecord
100
AcDbLinetypeTableRecord
2
BYLAYER
70
0
0
ENDTAB
0
TABLE
2
LAYER
5
2
100
AcDbSymbolTable
70
2
0
LAYER
5
50
100
AcDbSymbolTableRecord
100
AcDbLayerTableRecord
2
0
70
0
6
CONTINUOUS
0
ENDTAB
0
TABLE
2
STYLE
5
3
100
AcDbSymbolTable
70
1
0
STYLE
5
11
100
AcDbSymbolTableRecord
100
AcDbTextStyleTableRecord
2
STANDARD
70
0
0
ENDTAB
0
TABLE
2
VIEW
5
6
100
AcDbSymbolTable
70
0
0
ENDTAB
0
TABLE
2
UCS
5
7
100
AcDbSymbolTable
70
0
0
ENDTAB
0
TABLE
2
APPID
5
9
100
AcDbSymbolTable
70
2
0
APPID
5
12
100
AcDbSymbolTableRecord
100
AcDbRegAppTableRecord
2
ACAD
70
0
0
ENDTAB
0
TABLE
2
DIMSTYLE
5
A
100
AcDbSymbolTable
70
1
0
ENDTAB
0
TABLE
2
BLOCK_RECORD
5
1
100
AcDbSymbolTable
70
1
0
BLOCK_RECORD
5
1F
100
AcDbSymbolTableRecord
100
AcDbBlockTableRecord
2
*MODEL_SPACE
0
BLOCK_RECORD
5
1B
100
AcDbSymbolTableRecord
100
AcDbBlockTableRecord
2
*PAPER_SPACE
0
ENDTAB
0
ENDSEC
0
SECTION
2
BLOCKS
0
BLOCK
5
20
100
AcDbEntity
100
AcDbBlockBegin
2
*MODEL_SPACE
0
ENDBLK
5
21
100
AcDbEntity
100
AcDbBlockEnd
0
BLOCK
5
1C
100
AcDbEntity
100
AcDbBlockBegin
2
*PAPER_SPACE
0
ENDBLK
5
1D
100
AcDbEntity
100
AcDbBlockEnd
0
ENDSEC
0
SECTION
2
ENTITIES
0
LWPOLYLINE
5
100
100
AcDbEntity
8
0
100
AcDbPolyline
90
6
70
1
43
0.0
10
-264.24999999999994
20
-6.6645081595146172
10
-266.69999999999993
20
-8.079016319029197
10
-269.14999999999992
20
-6.6645081595146181
10
-269.14999999999992
20
-3.8354918404854308
10
-266.69999999999993
20
-2.4209836809708496
10
-264.24999999999994
20
-3.835491840485429
0
LWPOLYLINE
5
101
100
AcDbEntity
8
0
100
AcDbPolyline
90
6
70
1
43
0.0
10
2.4500000000000384
20
99.085491840485446
10
3.9412917374193057e-14
20
97.670983680970835
10
-2.449999999999962
20
99.085491840485417
10
-2.4499999999999647
20
101.91450815951457
10
3.2751579226442118e-14
20
103.32901631902917
10
2.450000000000037
20
101.91450815951457
0
LWPOLYLINE
5
102
100
AcDbEntity
8
0
100
AcDbPolyline
90
6
70
1
43
0.0
10
-130.90000000000001
20
-6.6645081595146047
10
-133.35000000000002
20
-8.0790163190291864
10
-135.80000000000001
20
-6.6645081595146083
10
-135.80000000000001
20
-3.8354918404854397
10
-133.35000000000002
20
-2.4209836809708598
10
-130.90000000000001
20
-3.8354918404854397
0
LWPOLYLINE
5
103
100
AcDbEntity
8
0
100
AcDbPolyline
90
6
70
1
43
0.0
10
-264.25
20
99.085491840485417
10
-266.70000000000005
20
97.670983680970835
10
-269.14999999999998
20
99.085491840485403
10
-269.14999999999998
20
101.91450815951458
10
-266.70000000000005
20
103.32901631902917
10
-264.25
20
101.91450815951458
0
LWPOLYLINE
5
104
100
AcDbEntity
8
0
100
AcDbPolyline
90
6
70
1
43
0.0
10
-130.89999999999998
20
99.08549184048546
10
-133.34999999999997
20
97.670983680970863
10
-135.79999999999995
20
99.085491840485446
10
-135.79999999999995
20
101.91450815951458
10
-133.34999999999997
20
103.32901631902919
10
-130.89999999999998
20
101.91450815951458
0
LWPOLYLINE
5
105
100
AcDbEntity
8
0
100
AcDbPolyline
90
6
70
1
43
0.0
10
2.4500000000000015
20
-6.6645081595145861
10
1.9428902930940239e-15
20
-8.0790163190291704
10
-2.4499999999999975
20
-6.6645081595145896
10
-2.4499999999999984
20
-3.8354918404854246
10
-8.3266726846886741e-16
20
-2.4209836809708412
10
2.4500000000000015
20
-3.8354918404854237
0
LWPOLYLINE
5
106
100
AcDbEntity
8
0
100
AcDbPolyline
90
20
70
1
43
0.0
10
7.5
20
103.25000000000001
42
0.41421356237309231
10
5
20
105.75
10
-271.70000000000005
20
105.75000000000001
42
0.41421356237310125
10
-274.20000000000005
20
103.25000000000001
10
-274.20000000000005
20
-7.9999999999999893
42
0.41421356237310258
10
-271.70000000000005
20
-10.499999999999982
10
-25.405000000000015
20
-10.499999999999989
10
-25.405000000000001
20
-0.47500000000000098
10
-265.17500000000007
20
-0.4750000000000032
42
-0.41421356237309637
10
-267.17500000000007
20
1.5249999999999986
10
-267.17500000000007
20
93.725000000000023
42
-0.41421356237309509
10
-265.17500000000007
20
95.725000000000023
10
-1.5249999999999986
20
95.725000000000023
42
-0.41421356237309481
10
0.47500000000000042
20
93.725000000000023
10
0.47500000000000042
20
1.5249999999999988
42
-0.41421356237309492
10
-1.5249999999999997
20
-0.47500000000000042
10
-11.465
20
-0.47500000000000042
10
-11.465
20
-10.499999999999989
10
5
20
-10.499999999999989
42
0.41421356237309509
10
7.5
20
-7.9999999999999893
0
ENDSEC
0
SECTION
2
OBJECTS
0
DICTIONARY
5
C
100
AcDbDictionary
3
ACAD_GROUP
350
D
3
ACAD_MLINESTYLE
350
17
0
DICTIONARY
5
D
100
AcDbDictionary
0
DICTIONARY
5
1A
330
C
100
AcDbDictionary
0
DICTIONARY
5
17
100
AcDbDictionary
0
ENDSEC
0
EOF
